# xmcd CD database file
# Copyright (C) 1993-1998 Ti Kan
# 
# Track frame offsets:
#     150
#     12612
#     24865
#     44842
#     63075
#     79252
#     93102
#     107015
#     119855
#     128220
#     146365
# 
# Disc length: 2152 seconds
# 
# Revision: 1
# Processed by: cddbd v1.4b41PL1 Copyright (c) Steve Scherf et al.
# Submitted via: DiscPlay 4.0.4
# 
DISCID=9308660b
DTITLE=Rory Block - The Early Tapes 1975/1976
DYEAR=1900
DGENRE=
TTITLE0=Canned Heat
TTITLE1=Nobody Knows You When You're Down and Out
TTITLE2=Three is a Crowd
TTITLE3=Why Should I Be Lonely
TTITLE4=Mississippi Blues
TTITLE5=Lonesome Gal
TTITLE6=Strong and Lasting Kind
TTITLE7=Powder Rag
TTITLE8=Blues Again
TTITLE9=Lovin' Good Dream
TTITLE10=You Broke My Heart
EXTD=
EXTT0=
EXTT1=
EXTT2=
EXTT3=
EXTT4=
EXTT5=
EXTT6=
EXTT7=
EXTT8=
EXTT9=
EXTT10=
PLAYORDER=
